<svg xmlns="http://www.w3.org/2000/svg" viewBox="0 0 49.85 46.68"><defs><style>.cls-1{fill:#ffffff;}</style></defs><title>logo_mb</title><g id="Layer_2" data-name="Layer 2"><g id="Layer_1-2" data-name="Layer 1"><path class="cls-1" d="M47.83,13.62C45.44,7.21,40.64,3.79,33.81,2,24.31-.51,14-1.78,6.14,5.18c-5.68,5-6.55,12.9-6,20.08C.78,33.51,8.29,39,15.77,41.14c6.09,1.71,7.63.37,13.75.44,5.25.05,6.95,1.48,8.74,5.1.3-1.66.82-6,2.31-6.19,5.38-.75,7.23-5.18,8-7.87A28.57,28.57,0,0,0,47.83,13.62ZM32.59,28A.79.79,0,0,1,31,28V23.2a4,4,0,1,0-7.93,0V28a.79.79,0,0,1-1.59,0V23.2a4,4,0,1,0-7.94,0V28A.79.79,0,0,1,12,28V18.44a.79.79,0,0,1,1.59,0v.86a5.59,5.59,0,0,1,8.73,1A5.57,5.57,0,0,1,32.59,23.2ZM40.25,25H35.09a.4.4,0,0,1,0-.8h5.16a.4.4,0,0,1,0,.8ZM37.78,23.2a3,3,0,0,1-2.08-.86v.45a.42.42,0,0,1-.83,0V15a.42.42,0,1,1,.83,0v3.2a2.92,2.92,0,1,1,2.08,5Z"/></g></g></svg>